<svg width="191" height="43" viewBox="0 0 191 43" fill="none" xmlns="http://www.w3.org/2000/svg">
<path d="M61.0104 19.9053H60.9691C60.9691 19.9053 60.9279 19.9463 60.9279 19.9874V29.2209C60.9279 29.2209 60.9279 29.262 60.9691 29.262C61.0104 29.262 61.0104 29.262 61.0104 29.262H63.0722H63.1135C63.1547 29.2209 63.1547 29.2209 63.1547 29.2209V19.9874C63.1547 19.9463 63.1547 19.9463 63.1135 19.9463V19.9053H63.0722H61.0104ZM63.1547 18.4279V16.4991C63.1547 16.4581 63.1547 16.4581 63.1135 16.4581H63.0722H61.0104H60.9691L60.9279 16.4991V18.4279C60.9279 18.4279 60.9279 18.469 60.9691 18.469C61.0104 18.51 61.0104 18.51 61.0104 18.51H63.0722H63.1135C63.1135 18.4279 63.1547 18.4279 63.1547 18.4279ZM48.5979 16.4171L48.5566 16.4581V29.2209C48.5566 29.2209 48.5566 29.262 48.5979 29.262C48.6391 29.262 48.6391 29.262 48.6391 29.262H53.9175C54.9072 29.262 55.7732 29.0978 56.5155 28.7285C57.2165 28.4002 57.8351 27.9487 58.2887 27.3332C58.7423 26.7586 59.0722 26.061 59.3196 25.2813C59.5258 24.5016 59.6495 23.6398 59.6495 22.778C59.6495 21.8751 59.5258 21.0544 59.3196 20.3157V20.2746C59.0722 19.4949 58.7423 18.7973 58.2887 18.1817C57.8351 17.6072 57.2165 17.1557 56.5155 16.8274C55.7732 16.4991 54.9072 16.2939 53.9175 16.2939H48.6391C48.6391 16.4171 48.5979 16.4171 48.5979 16.4171ZM51.0721 18.3869H53.0928C53.9588 18.3869 54.6598 18.51 55.2371 18.7562C55.2371 18.7562 55.2783 18.7562 55.2371 18.7973C55.7732 19.0025 56.1856 19.2897 56.4742 19.6591C56.8041 20.0694 57.0103 20.5619 57.0928 21.0954C57.2165 21.6289 57.2577 22.2445 57.2577 22.9011C57.2577 23.5166 57.2165 24.1322 57.0928 24.6657C57.0103 25.1992 56.8041 25.6917 56.4742 26.102C56.1856 26.5124 55.7732 26.7997 55.2371 27.0459H55.1959C54.6598 27.2511 53.9588 27.3742 53.0928 27.3742H51.0721C51.0309 27.3742 51.0309 27.3742 51.0309 27.3742C50.9897 27.3332 50.9897 27.3332 50.9897 27.2921V18.51C50.9897 18.469 50.9897 18.469 51.0309 18.469C50.9897 18.4279 51.0309 18.3869 51.0721 18.3869ZM93.8354 20.1515C93.2581 19.8232 92.5983 19.7001 91.856 19.7001C91.1137 19.7001 90.4951 19.8232 89.9591 20.1105C89.3817 20.3977 88.8869 20.7261 88.5157 21.1775C88.1034 21.6289 87.8147 22.1624 87.6085 22.778C87.4023 23.3525 87.2786 23.9681 87.2786 24.6657C87.2786 25.3633 87.4023 26.02 87.6085 26.6355C87.8147 27.2511 88.1034 27.7846 88.4745 28.236C88.8456 28.6874 89.3405 29.0157 89.9178 29.262C90.4951 29.5082 91.1549 29.6313 91.8972 29.6313C92.4333 29.6313 92.9282 29.5492 93.3818 29.4261C93.8354 29.303 94.289 29.0978 94.6601 28.8105C95.0313 28.5233 95.3612 28.195 95.6498 27.7846C95.8973 27.3742 96.1034 26.9228 96.2272 26.3893C96.2272 26.3483 96.2272 26.3483 96.2272 26.3483H96.1859L96.1447 26.3072H94.1653C94.1653 26.3072 94.124 26.3072 94.124 26.3483H94.0828C93.9179 26.8407 93.6292 27.2101 93.2993 27.4973C92.9282 27.7436 92.4333 27.8667 91.856 27.8667C91.4436 27.8667 91.1137 27.7846 90.825 27.6615C90.5364 27.4973 90.289 27.3332 90.0828 27.0869C89.8766 26.8407 89.7529 26.5945 89.6292 26.3072V26.2662C89.5467 25.9789 89.4642 25.6917 89.4642 25.4454V25.4044C89.4642 25.3633 89.4642 25.3633 89.5054 25.3633H89.5467H96.1447C96.1859 25.3633 96.1859 25.3633 96.2272 25.3223V25.2813C96.3096 24.5836 96.2684 23.886 96.1034 23.2704C95.9385 22.5728 95.6498 21.9982 95.2375 21.5058C94.9488 20.8492 94.4539 20.4388 93.8354 20.1515ZM93.9179 22.9011C94.0003 23.1063 94.0416 23.3525 94.0828 23.5987V23.6398C94.0828 23.6808 94.0416 23.6808 94.0416 23.6808H94.0003H89.6292H89.5879C89.5467 23.6808 89.5467 23.6398 89.5467 23.6398C89.5467 23.5987 89.5054 23.5987 89.5054 23.5987C89.5467 23.3525 89.5879 23.1063 89.7116 22.86C89.8353 22.5728 90.0003 22.3265 90.2065 22.1213C90.4127 21.8751 90.6189 21.711 90.9488 21.5879C91.2374 21.4647 91.5261 21.4237 91.8972 21.4237C92.2271 21.4237 92.5158 21.5058 92.7632 21.6289C93.0519 21.752 93.2581 21.9162 93.4642 22.1624C93.6292 22.3676 93.7941 22.6138 93.9179 22.9011ZM77.794 19.9463C77.794 19.9463 77.794 19.9874 77.794 20.0284V29.262V29.303H77.8352H77.8765H79.9384C79.9796 29.303 79.9796 29.303 79.9796 29.303C79.9796 29.262 80.0208 29.262 80.0208 29.262V23.7629C80.0208 23.4346 80.0621 23.1473 80.1858 22.9011C80.2683 22.6138 80.392 22.3676 80.5982 22.1624H80.6394C80.8043 21.9162 81.0518 21.752 81.2992 21.6289C81.5466 21.5058 81.8765 21.4647 82.2064 21.4647C82.7837 21.4647 83.1961 21.6289 83.4848 21.9162V21.9572C83.7734 22.2855 83.8971 22.778 83.9384 23.5166V29.303V29.344H83.9796H86.0003C86.0415 29.344 86.0415 29.344 86.0827 29.344C86.0827 29.303 86.0827 29.303 86.0827 29.303V22.9011C86.0827 21.8341 85.7941 21.0133 85.1755 20.4798C84.5982 19.9463 83.7734 19.6591 82.7425 19.6591C82.1239 19.6591 81.5466 19.8232 81.0518 20.1105C80.6806 20.3157 80.3507 20.5619 80.1033 20.9312H80.0621H80.0208C80.0208 20.9312 79.9796 20.9312 79.9796 20.8902C79.9796 20.8902 79.9796 20.8492 79.9796 20.8081V19.9874C79.9796 19.9463 79.9796 19.9463 79.9384 19.9053C79.8971 19.9053 79.8971 19.9053 79.8971 19.9053H77.959C77.8765 19.9053 77.8352 19.9053 77.794 19.9463ZM74.0002 19.9053C73.9589 19.9053 73.9589 19.9053 73.9589 19.9053C73.9589 19.9053 73.9177 19.9463 73.9177 19.9874V29.2209C73.9177 29.2209 73.9177 29.262 73.9589 29.262H74.0002H76.0208C76.062 29.262 76.062 29.262 76.062 29.262C76.062 29.2209 76.1033 29.2209 76.1033 29.2209V19.9874C76.1033 19.9463 76.1033 19.9463 76.062 19.9053H76.0208H74.0002ZM74.0002 16.4171C73.9589 16.4171 73.9589 16.4171 73.9589 16.4171L73.9177 16.4581V18.3869C73.9177 18.3869 73.9177 18.4279 73.9589 18.4279H74.0002H76.0208C76.062 18.4279 76.062 18.4279 76.062 18.3869L76.1033 18.3458V16.4171C76.1033 16.376 76.1033 16.376 76.062 16.376H76.0208H74.0002V16.4171ZM70.8249 19.9463V19.9874L68.7218 26.5945C68.7218 26.5945 68.7218 26.6355 68.6805 26.6355H68.6393H68.598L68.5568 26.5945L66.33 19.9874C66.33 19.9874 66.33 19.9463 66.2888 19.9463H66.2475H64.0207H63.9795C63.9795 19.9874 63.9795 19.9874 63.9382 20.0284H63.9795L67.3609 29.262L67.4022 29.303H69.7115C69.7527 29.303 69.7527 29.303 69.7527 29.303L69.7939 29.262L73.0929 20.0284C73.0929 19.9874 73.0929 19.9874 73.0929 19.9874V19.9463C73.0517 19.9463 73.0517 19.9463 73.0105 19.9463H70.9074C70.9074 19.9053 70.8661 19.9053 70.8249 19.9463ZM183.403 20.2746C183.032 20.4798 182.743 20.7671 182.455 21.0954C182.207 21.4237 182.084 21.8751 182.084 22.4086C182.084 22.86 182.166 23.2704 182.331 23.6398C182.496 23.9681 182.743 24.2553 183.073 24.4605C183.362 24.6657 183.651 24.8299 184.022 24.953C184.352 25.0761 184.723 25.1582 185.135 25.2813C185.506 25.3633 185.877 25.4454 186.249 25.5275C186.578 25.6096 186.908 25.6917 187.197 25.7737C187.444 25.8558 187.609 25.9789 187.774 26.102C187.816 26.102 187.816 26.1431 187.816 26.1431C187.981 26.3072 188.063 26.5124 188.063 26.7586C188.063 26.9638 188.022 27.169 187.898 27.3332C187.774 27.4563 187.609 27.5794 187.444 27.6615C187.444 27.6615 187.403 27.6615 187.403 27.7025C187.197 27.7846 186.95 27.8256 186.702 27.8667C186.455 27.8667 186.249 27.8667 186.042 27.8667C185.506 27.8667 185.053 27.7436 184.682 27.5384C184.31 27.2921 184.104 26.8818 184.063 26.3483V26.3072C184.022 26.3072 184.022 26.2662 183.98 26.2662H181.919C181.919 26.2662 181.919 26.2662 181.919 26.3072C181.919 26.3072 181.919 26.3072 181.919 26.3483C181.919 26.8818 182.042 27.3742 182.249 27.7846C182.455 28.195 182.743 28.5233 183.114 28.8105H183.156C183.527 29.0568 183.98 29.262 184.475 29.4261C184.97 29.5492 185.506 29.6313 186.084 29.6313C186.578 29.6313 187.073 29.5903 187.527 29.4671C188.022 29.344 188.517 29.1799 188.929 28.9337C189.3 28.6874 189.63 28.4002 189.877 28.0308C189.877 27.9898 189.877 27.9898 189.877 27.9898C190.166 27.5794 190.29 27.128 190.29 26.5535C190.29 26.102 190.207 25.6917 190.042 25.3633C189.836 25.035 189.589 24.7888 189.3 24.5836C189.011 24.3784 188.682 24.2143 188.31 24.0912H188.269C187.898 23.9681 187.568 23.8449 187.238 23.7629C187.197 23.7629 187.197 23.7629 187.197 23.7629C186.826 23.6808 186.455 23.5987 186.125 23.5577C185.754 23.4756 185.465 23.3935 185.176 23.3114C184.929 23.1883 184.682 23.0652 184.517 22.9421C184.352 22.778 184.31 22.5728 184.31 22.3676C184.31 22.1624 184.352 22.0393 184.434 21.9162H184.475C184.558 21.793 184.682 21.711 184.846 21.6699C185.011 21.5878 185.176 21.5468 185.383 21.5058C185.589 21.4647 185.754 21.4647 185.877 21.4647C186.331 21.4647 186.702 21.5468 187.073 21.711C187.362 21.8751 187.568 22.1624 187.692 22.6548C187.692 22.6548 187.733 22.6959 187.733 22.7369H187.774H189.919C189.919 22.7369 189.96 22.7369 190.001 22.7369V22.6959C190.001 22.6548 190.001 22.6548 190.001 22.6138C189.919 22.0803 189.795 21.6699 189.589 21.3006C189.341 20.9312 189.053 20.6029 188.682 20.3567C188.31 20.1105 187.939 19.9463 187.527 19.8643C187.486 19.8643 187.486 19.8643 187.444 19.8643C186.991 19.7411 186.537 19.7001 186.084 19.7001C185.671 19.7001 185.218 19.7411 184.723 19.8232C184.269 19.9053 183.816 20.0694 183.486 20.2746C183.444 20.2746 183.444 20.2746 183.403 20.2746ZM176.929 19.6591C176.187 19.6591 175.568 19.7822 175.032 20.0694C174.455 20.3567 173.96 20.685 173.589 21.1364C173.176 21.5878 172.888 22.1213 172.681 22.7369C172.475 23.3114 172.352 23.927 172.352 24.6247C172.352 25.3223 172.475 25.9789 172.681 26.5945C172.888 27.2101 173.176 27.7436 173.547 28.195C173.919 28.6464 174.413 28.9747 174.991 29.2209C175.568 29.4671 176.228 29.5903 176.97 29.5903C177.465 29.5903 177.96 29.5082 178.455 29.3851C178.908 29.262 179.321 29.0568 179.692 28.7695C180.063 28.4822 180.393 28.1539 180.681 27.7436C180.929 27.3332 181.135 26.8818 181.218 26.3483C181.218 26.3072 181.218 26.3072 181.218 26.3072L181.176 26.2662H179.238C179.238 26.2662 179.197 26.2662 179.156 26.3072C178.991 26.7997 178.702 27.169 178.372 27.4563C178.001 27.7025 177.547 27.8256 176.929 27.8256C176.516 27.8256 176.145 27.7436 175.857 27.6204C175.568 27.4563 175.321 27.2921 175.156 27.0459C174.949 26.7997 174.785 26.5535 174.702 26.2662V26.2251C174.62 25.9379 174.537 25.6506 174.537 25.4044C174.537 25.4044 174.537 25.3633 174.578 25.3633C174.578 25.3223 174.578 25.3223 174.62 25.3223H174.661H181.259C181.3 25.3223 181.3 25.3223 181.341 25.2813V25.2402C181.424 24.5426 181.424 23.8449 181.218 23.2294C181.011 22.5317 180.723 21.9572 180.352 21.4647C179.98 20.9312 179.486 20.5209 178.908 20.2336C178.372 19.8232 177.712 19.6591 176.929 19.6591ZM179.156 23.6398C179.156 23.6808 179.156 23.6808 179.114 23.6808C179.073 23.6808 179.073 23.6808 179.073 23.6808H174.702H174.661C174.62 23.6808 174.62 23.6398 174.62 23.6398C174.62 23.5987 174.62 23.5987 174.62 23.5987C174.661 23.3525 174.702 23.1063 174.785 22.86C174.908 22.5728 175.073 22.3265 175.279 22.1213C175.486 21.8751 175.733 21.711 176.022 21.5879C176.31 21.4647 176.599 21.4237 176.97 21.4237C177.3 21.4237 177.589 21.5058 177.877 21.6289C178.166 21.752 178.372 21.9162 178.578 22.1624C178.743 22.3676 178.908 22.6138 179.032 22.9011C179.114 23.1063 179.156 23.3525 179.197 23.5987C179.197 23.6398 179.156 23.6398 179.156 23.6398ZM133.836 20.1515C133.258 19.8232 132.557 19.7001 131.815 19.7001C131.073 19.7001 130.454 19.8232 129.918 20.1105C129.341 20.3977 128.846 20.7261 128.475 21.1775C128.062 21.6289 127.774 22.1624 127.568 22.778C127.361 23.3525 127.238 23.9681 127.238 24.6657C127.238 25.3633 127.32 26.02 127.568 26.6355C127.774 27.2511 128.062 27.7846 128.475 28.236C128.846 28.6874 129.341 29.0157 129.918 29.262C130.495 29.5082 131.155 29.6313 131.898 29.6313C132.434 29.6313 132.928 29.5492 133.382 29.4261C133.877 29.303 134.289 29.0978 134.66 28.8105C135.032 28.5233 135.362 28.195 135.65 27.7846C135.898 27.3742 136.104 26.9228 136.228 26.3893C136.228 26.3893 136.227 26.3893 136.269 26.3893H136.228C136.228 26.3483 136.228 26.3483 136.228 26.3483H136.186L136.145 26.3072H134.207C134.166 26.3072 134.166 26.3072 134.166 26.3483H134.124C133.959 26.8407 133.712 27.2101 133.341 27.4973C132.97 27.7436 132.516 27.8667 131.939 27.8667C131.526 27.8667 131.197 27.7846 130.867 27.6615C130.578 27.4973 130.331 27.3332 130.124 27.0869C129.918 26.8407 129.794 26.5945 129.671 26.3072V26.2662C129.588 25.9789 129.506 25.6917 129.506 25.4454C129.506 25.4454 129.506 25.4044 129.547 25.4044C129.547 25.3633 129.547 25.3633 129.588 25.3633H129.63H136.269C136.31 25.3633 136.31 25.3633 136.31 25.3223V25.2813C136.392 24.5836 136.351 23.886 136.186 23.2704C136.021 22.5728 135.733 21.9982 135.32 21.5058C134.908 20.8492 134.413 20.4388 133.836 20.1515ZM133.877 22.9011C133.959 23.1063 134.001 23.3525 134.042 23.5987V23.6398C134.042 23.6808 134.042 23.6808 134.042 23.6808C134.001 23.6808 134.001 23.6808 133.959 23.6808H129.588H129.547C129.506 23.6808 129.506 23.6398 129.506 23.6398C129.506 23.5987 129.506 23.5987 129.506 23.5987C129.547 23.3525 129.588 23.1063 129.671 22.86C129.794 22.5728 129.959 22.3265 130.166 22.1213C130.372 21.8751 130.578 21.711 130.908 21.5879C131.197 21.4647 131.485 21.4237 131.856 21.4237C132.186 21.4237 132.475 21.5058 132.722 21.6289C133.011 21.752 133.217 21.9162 133.465 22.1624C133.63 22.3676 133.753 22.6138 133.877 22.9011ZM121.258 19.9053C121.217 19.9053 121.217 19.9053 121.217 19.9053C121.217 19.9053 121.176 19.9463 121.176 19.9874V21.4647C121.176 21.5058 121.176 21.5058 121.217 21.5058H121.258H122.619C122.66 21.5058 122.66 21.5058 122.702 21.5468C122.743 21.5468 122.743 21.5879 122.743 21.5879V26.9638C122.743 27.3332 122.784 27.6615 122.867 27.9898C122.949 28.3181 123.073 28.5643 123.279 28.7695H123.32C123.485 28.9747 123.774 29.1388 124.104 29.262C124.434 29.344 124.846 29.3851 125.423 29.3851C125.629 29.3851 125.877 29.3851 126.083 29.344C126.289 29.303 126.537 29.303 126.784 29.262L126.825 29.2209C126.825 29.1799 126.825 29.1799 126.825 29.1799V27.6204V27.5794L126.784 27.5384H126.743C126.578 27.5794 126.454 27.5794 126.331 27.5794C126.166 27.5794 126.042 27.5794 125.877 27.5794C125.671 27.5794 125.506 27.5794 125.382 27.5384H125.341C125.258 27.4563 125.176 27.4152 125.135 27.3332C125.093 27.2101 125.052 27.128 125.011 26.9638C125.011 26.7997 125.011 26.6355 125.011 26.4303V21.6699C125.011 21.6289 125.011 21.6289 125.052 21.6289C125.093 21.5879 125.093 21.5879 125.135 21.5879H126.784C126.825 21.5879 126.825 21.5879 126.825 21.5879H126.867V21.5468V19.9874C126.867 19.9463 126.867 19.9463 126.825 19.9053H126.784H125.135C125.093 19.9053 125.093 19.9053 125.052 19.8643L125.011 19.8232V17.2378C125.011 17.1968 125.011 17.1968 125.011 17.1968H124.97L124.928 17.1557H122.867C122.825 17.1557 122.825 17.1557 122.825 17.1968C122.825 17.1968 122.784 17.1968 122.784 17.2378V19.8232C122.784 19.8643 122.784 19.8643 122.743 19.8643C122.743 19.9053 122.702 19.9053 122.66 19.9053H121.258ZM112.227 19.9053C112.186 19.9053 112.186 19.9053 112.186 19.9053C112.186 19.9053 112.186 19.9463 112.186 19.9874V29.2209V29.262H112.227H114.289H114.33C114.372 29.2209 114.372 29.2209 114.372 29.2209V23.7629C114.372 23.4346 114.413 23.1473 114.537 22.9011V22.86C114.619 22.5728 114.743 22.3265 114.949 22.1213C115.114 21.8751 115.361 21.711 115.609 21.5879C115.856 21.4647 116.145 21.4237 116.475 21.4237C117.052 21.4237 117.506 21.5878 117.794 21.8751V21.9162C118.042 22.2445 118.207 22.7369 118.207 23.4756V29.262V29.303C118.207 29.303 118.248 29.303 118.289 29.303H120.31H120.351C120.392 29.262 120.392 29.262 120.392 29.262V22.9011C120.392 21.8341 120.104 21.0133 119.485 20.4798C118.867 19.9463 118.083 19.6591 117.052 19.6591C116.392 19.6591 115.815 19.8232 115.32 20.1105C114.949 20.3157 114.619 20.5619 114.372 20.8902C114.372 20.9312 114.33 20.9312 114.33 20.9312C114.289 20.9312 114.289 20.9312 114.289 20.9312C114.248 20.9312 114.248 20.9312 114.207 20.8902C114.207 20.8902 114.207 20.8492 114.207 20.8081V19.9874C114.207 19.9463 114.207 19.9463 114.207 19.9463V19.9053C114.207 19.9053 114.165 19.9053 114.124 19.9053H112.227ZM101.506 16.4171C101.464 16.4171 101.464 16.4581 101.464 16.4581V29.2209C101.464 29.2209 101.464 29.262 101.506 29.262H101.547H110.866H110.908C110.949 29.2209 110.949 29.2209 110.949 29.2209V27.2921C110.949 27.2511 110.949 27.2511 110.908 27.2511L110.866 27.2101H103.939C103.897 27.2101 103.897 27.2101 103.897 27.169C103.856 27.169 103.856 27.128 103.856 27.0869V23.7629C103.856 23.7218 103.856 23.7218 103.897 23.6808L103.939 23.6398H110.207C110.248 23.6398 110.248 23.6398 110.289 23.6398V23.5987V23.5577V21.711C110.289 21.711 110.289 21.6699 110.289 21.6289C110.289 21.6289 110.248 21.6289 110.207 21.6289H103.939C103.897 21.6289 103.897 21.6289 103.897 21.6289C103.856 21.5879 103.856 21.5878 103.856 21.5468V18.5921C103.856 18.551 103.856 18.551 103.897 18.51L103.939 18.469H110.701C110.743 18.469 110.743 18.469 110.784 18.4279V18.3869V16.4581C110.784 16.4171 110.784 16.4171 110.784 16.4171C110.784 16.4171 110.743 16.4171 110.701 16.4171H101.506C101.547 16.4171 101.547 16.4171 101.506 16.4171ZM164.846 20.2746C164.475 20.4798 164.186 20.7671 163.939 21.0954C163.692 21.4237 163.568 21.8751 163.568 22.4086C163.568 22.86 163.65 23.2704 163.815 23.6398C163.98 23.9681 164.228 24.2553 164.558 24.4605C164.846 24.6657 165.135 24.8299 165.506 24.953C165.836 25.0761 166.207 25.1582 166.62 25.2813C166.991 25.3633 167.362 25.4454 167.692 25.5275C168.063 25.6096 168.351 25.6917 168.681 25.7737C168.929 25.8558 169.094 25.9789 169.259 26.102L169.3 26.1431C169.465 26.3072 169.547 26.5124 169.547 26.7586C169.547 26.9638 169.506 27.169 169.382 27.3332C169.259 27.4563 169.094 27.5794 168.929 27.6615C168.929 27.6615 168.929 27.6615 168.929 27.7025C168.681 27.7846 168.475 27.8256 168.228 27.8667C167.98 27.8667 167.774 27.8667 167.609 27.8667C167.073 27.8667 166.62 27.7436 166.207 27.5384C165.836 27.2921 165.63 26.8818 165.589 26.3483L165.547 26.3072C165.506 26.3072 165.506 26.2662 165.506 26.2662H163.444V26.3072H163.403V26.3483C163.403 26.8818 163.527 27.3742 163.774 27.7846C163.98 28.195 164.269 28.5233 164.599 28.8105H164.64C165.011 29.0568 165.465 29.262 165.96 29.4261C166.455 29.5492 166.991 29.6313 167.609 29.6313C168.104 29.6313 168.599 29.5903 169.053 29.4671C169.053 29.4671 169.053 29.4671 169.094 29.4671C169.589 29.344 170.042 29.1799 170.455 28.9337C170.826 28.6874 171.156 28.4002 171.403 28.0308C171.403 27.9898 171.403 27.9898 171.403 27.9898C171.692 27.5794 171.815 27.128 171.815 26.5535C171.815 26.102 171.733 25.6917 171.568 25.3633C171.362 25.035 171.114 24.7888 170.826 24.5836C170.537 24.3784 170.207 24.2143 169.836 24.0912H169.795C169.465 23.9681 169.094 23.8449 168.764 23.7629H168.723C168.351 23.6808 167.98 23.5987 167.65 23.5577C167.279 23.4756 166.991 23.3935 166.702 23.3114C166.455 23.1883 166.207 23.0652 166.042 22.9421C165.877 22.778 165.836 22.5728 165.836 22.3676C165.836 22.1624 165.877 22.0393 165.96 21.9162H166.001C166.083 21.793 166.207 21.711 166.372 21.6699C166.537 21.5878 166.702 21.5468 166.908 21.5058C167.114 21.4647 167.279 21.4647 167.444 21.4647C167.857 21.4647 168.269 21.5468 168.64 21.711C168.97 21.8751 169.176 22.1624 169.259 22.6548C169.259 22.6548 169.259 22.6959 169.3 22.7369H169.341H171.444C171.444 22.7369 171.486 22.7369 171.527 22.7369V22.6959C171.527 22.6548 171.527 22.6548 171.527 22.6138C171.444 22.0803 171.321 21.6699 171.114 21.3006C170.867 20.9312 170.578 20.6029 170.207 20.3567C169.877 20.1105 169.465 19.9463 169.011 19.8643H168.97C168.558 19.7411 168.104 19.7001 167.568 19.7001C167.156 19.7001 166.702 19.7411 166.207 19.8232C165.754 19.9053 165.341 20.0694 164.97 20.2746C164.888 20.2746 164.846 20.2746 164.846 20.2746ZM159.98 19.9463C159.98 19.9463 159.939 19.9874 159.939 20.0284V29.262C159.939 29.262 159.939 29.303 159.98 29.303C160.022 29.303 160.022 29.303 160.022 29.303H162.083H162.125C162.166 29.262 162.166 29.262 162.166 29.262V19.9874C162.166 19.9463 162.166 19.9463 162.125 19.9463V19.9053H162.083H160.022C160.022 19.9053 159.98 19.9053 159.98 19.9463ZM162.125 18.469L162.166 18.4279V16.4991C162.166 16.4581 162.166 16.4581 162.125 16.4581H162.083H160.022H159.98L159.939 16.4991V18.4279C159.939 18.4279 159.939 18.469 159.98 18.469C160.022 18.51 160.022 18.51 160.022 18.51H162.083C162.083 18.51 162.125 18.51 162.125 18.469ZM154.001 19.9053C153.96 19.9053 153.96 19.9053 153.96 19.9053C153.96 19.9053 153.96 19.9053 153.96 19.9463C153.96 19.9463 153.96 19.9463 153.96 19.9874V29.2209V29.262H154.001H156.063C156.104 29.262 156.104 29.262 156.104 29.262C156.104 29.2209 156.104 29.2209 156.104 29.2209V24.8299C156.104 24.3374 156.186 23.886 156.31 23.5577C156.31 23.5577 156.31 23.5166 156.351 23.5166C156.475 23.1473 156.64 22.819 156.846 22.5728H156.887C157.094 22.2855 157.341 22.0803 157.63 21.9572C157.918 21.8341 158.248 21.752 158.578 21.752C158.743 21.752 158.867 21.752 159.032 21.752C159.156 21.752 159.32 21.793 159.444 21.8341C159.444 21.8341 159.485 21.8341 159.527 21.8341V21.793C159.527 21.752 159.527 21.752 159.527 21.752V19.7822V19.7411C159.527 19.7001 159.485 19.7001 159.485 19.7001C159.403 19.7001 159.279 19.6591 159.238 19.6591H159.197C159.114 19.6591 158.949 19.618 158.702 19.618C158.372 19.618 158.083 19.7001 157.753 19.8232H157.712C157.424 19.9463 157.135 20.1105 156.887 20.2746C156.64 20.4798 156.434 20.685 156.269 20.9312C156.269 20.9312 156.269 20.9723 156.228 20.9723L156.186 21.0133L156.145 21.0544C156.104 21.0544 156.104 21.0544 156.104 21.0544C156.063 21.0544 156.063 21.0544 156.021 21.0133V20.9723V19.9874C156.021 19.9463 156.021 19.9463 156.021 19.9053C155.98 19.9053 155.98 19.9053 155.939 19.9053H154.001ZM143.403 19.9053C143.362 19.9053 143.362 19.9053 143.362 19.9053C143.362 19.9053 143.362 19.9053 143.362 19.9463C143.362 19.9463 143.32 19.9463 143.32 19.9874V32.6271C143.32 32.6271 143.32 32.6681 143.362 32.6681L143.403 32.7092H145.465C145.506 32.7092 145.506 32.7092 145.506 32.6681C145.506 32.6271 145.506 32.6271 145.506 32.6271V28.5233C145.506 28.4822 145.506 28.4822 145.547 28.4822L145.588 28.4412H145.63C145.63 28.4412 145.671 28.4412 145.671 28.4822C145.753 28.5643 145.877 28.6874 146.001 28.7285C146.248 28.8926 146.496 29.0568 146.784 29.1799C147.073 29.303 147.362 29.3851 147.692 29.4261C147.98 29.4671 148.269 29.5082 148.558 29.5082C149.259 29.5082 149.877 29.3851 150.413 29.0978C150.908 28.8105 151.362 28.4412 151.65 28.0308C151.98 27.5794 152.269 27.0459 152.434 26.4303C152.599 25.8558 152.681 25.2402 152.681 24.6247C152.681 23.927 152.599 23.2704 152.434 22.6548C152.228 22.0393 151.98 21.5058 151.609 21.0544C151.238 20.6029 150.784 20.2746 150.207 19.9874C149.63 19.7411 149.011 19.577 148.228 19.577C147.609 19.577 147.032 19.7001 146.537 19.9463C146.166 20.1105 145.877 20.3567 145.588 20.685L145.547 20.7261C145.547 20.7261 145.506 20.7261 145.465 20.7261C145.465 20.7261 145.423 20.7261 145.423 20.685L145.382 20.644V19.9874C145.382 19.9463 145.382 19.9463 145.382 19.9053C145.341 19.9053 145.341 19.9053 145.341 19.9053H143.403ZM149.877 22.4496C150.083 22.7369 150.248 23.0652 150.372 23.4756C150.454 23.8449 150.537 24.2553 150.537 24.6657C150.537 25.035 150.496 25.4454 150.372 25.8558V25.8968C150.289 26.2251 150.125 26.5535 149.96 26.8407C149.753 27.128 149.506 27.3742 149.176 27.5794C148.846 27.7436 148.475 27.8256 148.021 27.8256C147.65 27.8256 147.279 27.7436 146.99 27.6204C146.702 27.4563 146.413 27.2101 146.207 26.9638C145.96 26.6766 145.795 26.3483 145.712 25.9789V25.9379C145.588 25.5275 145.506 25.1171 145.506 24.7067C145.506 23.7629 145.712 22.9831 146.124 22.4086V22.3676C146.537 21.793 147.155 21.5058 147.98 21.5058C148.393 21.5058 148.764 21.5879 149.052 21.793C149.382 21.8751 149.671 22.1213 149.877 22.4496ZM137.382 19.9463C137.341 19.9463 137.341 19.9463 137.341 19.9874V29.2209C137.341 29.2209 137.341 29.262 137.382 29.262H137.423H139.485H139.526C139.568 29.2209 139.568 29.2209 139.568 29.2209V24.8299C139.568 24.3374 139.65 23.886 139.774 23.5577V23.5166C139.898 23.1473 140.063 22.819 140.31 22.5728C140.516 22.2855 140.764 22.0803 141.094 21.9572C141.382 21.8341 141.671 21.752 142.042 21.752C142.166 21.752 142.331 21.752 142.496 21.752C142.619 21.752 142.784 21.793 142.908 21.8341H142.949L142.99 21.793C142.99 21.752 142.99 21.752 142.99 21.752V19.7822V19.7411C142.949 19.7001 142.949 19.7001 142.908 19.7001C142.825 19.7001 142.743 19.6591 142.661 19.6591C142.578 19.6591 142.413 19.618 142.124 19.618C141.795 19.618 141.506 19.7001 141.217 19.8232H141.176C140.887 19.9463 140.599 20.1105 140.351 20.2746C140.104 20.4798 139.898 20.685 139.733 20.9312L139.691 20.9723L139.65 21.0133L139.609 21.0544H139.568C139.568 21.0544 139.526 21.0544 139.526 21.0133L139.485 20.9723V19.9874C139.485 19.9463 139.485 19.9463 139.485 19.9053H139.444H137.547C137.423 19.9053 137.382 19.9053 137.382 19.9463Z" fill="#083068"/>
<path d="M21.2987 0.572021C15.443 0.572021 10.4945 2.62392 6.41196 6.76876C2.32945 10.8315 0.267578 15.7561 0.267578 21.5835C0.267578 25.6873 1.29851 29.3807 3.40163 32.7048C4.22638 34.018 5.25731 35.2492 6.41196 36.3982C10.4945 40.502 15.443 42.5539 21.2987 42.5539C27.1132 42.5539 32.1029 40.502 36.2679 36.3982C37.4638 35.2492 38.4535 34.018 39.3195 32.7048C41.3813 29.3807 42.4535 25.6873 42.4535 21.5835C42.4535 15.7561 40.3916 10.8315 36.2679 6.76876C32.1029 2.62392 27.1132 0.572021 21.2987 0.572021ZM9.62848 5.16828L9.95838 4.92205L11.278 6.64565L10.7419 7.09707L8.92745 6.15319H8.88621L9.99962 7.58952L9.66972 7.83575L8.35012 6.07112L8.92745 5.66074L10.7007 6.56357L10.6182 6.44046C10.5769 6.39942 10.4945 6.27631 10.3295 6.11215L9.62848 5.16828ZM12.4326 3.48572L12.5976 3.81403L11.6491 4.34752L11.9378 4.83998L12.8038 4.38856L12.9687 4.63479L12.0615 5.0862L12.3502 5.6197L13.2986 5.0862L13.4636 5.41451L12.144 6.11215L11.1543 4.22441L12.4326 3.48572ZM15.6492 2.62392L15.8141 3.15742L16.7626 2.91119L16.845 3.19846L15.8966 3.44468L16.0615 4.06025L17.0925 3.77299L17.2162 4.10129L15.7729 4.51167L15.1955 2.41873L16.5976 2.00835L16.7213 2.33666L15.6492 2.62392ZM7.03052 7.3433L7.36042 7.05603L8.88621 8.61547L8.59755 8.90274L7.03052 7.3433ZM5.95835 8.45132L6.24701 8.08198L7.48414 10.0108L7.07176 10.5032L4.92741 9.68246L5.21607 9.35416L6.4532 9.80558C6.53567 9.84661 6.74186 9.92869 6.98929 10.0518V10.0108C6.86557 9.80558 6.74186 9.64142 6.65939 9.51831L5.95835 8.45132ZM4.10266 10.9546L4.30885 10.6263L6.1233 11.7754L5.91711 12.1447L4.10266 10.9546ZM3.07173 12.7603C3.1542 12.6372 3.19544 12.5141 3.27791 12.473C3.36039 12.391 3.44286 12.3499 3.52534 12.3089C3.64905 12.2679 3.85524 12.2679 4.06143 12.3499L4.22638 12.432C4.4738 12.5551 4.63875 12.6372 4.76246 12.6782C4.88617 12.7603 5.00989 12.8424 5.09236 12.9245C5.1336 13.0065 5.17484 13.1297 5.21607 13.2528C5.21607 13.3759 5.17484 13.54 5.09236 13.7042L4.63875 14.6891L2.61811 13.7042L3.07173 12.7603ZM28.2266 3.0343C28.2266 3.11638 28.1853 3.19845 28.1853 3.32157C28.1441 3.44468 28.0616 3.5678 28.0204 3.64987C27.9379 3.77299 27.8554 3.81403 27.773 3.81403H27.608H27.5668C27.8142 3.8961 27.8967 4.10129 27.8142 4.34752L27.6905 4.79894L27.2781 4.67582L27.4018 4.26544C27.4431 4.14233 27.4431 4.06025 27.4018 3.97818C27.3606 3.8961 27.2781 3.85506 27.1544 3.81403L26.6596 3.69091L26.4534 4.34752L26.041 4.22441L26.7008 2.1725L27.6905 2.50081C27.8967 2.54185 28.0204 2.62392 28.1029 2.706C28.1853 2.78807 28.2266 2.91119 28.2266 3.0343ZM29.34 4.71686L29.0101 5.33243L28.639 5.16828L29.6287 3.23949L30.6184 3.73195C30.7421 3.81403 30.8245 3.85506 30.907 3.8961C30.9483 3.97818 30.9895 4.06025 30.9895 4.14233C31.0307 4.26544 30.9895 4.4296 30.8658 4.67582C30.7833 4.88101 30.6596 5.00413 30.5771 5.04517C30.4534 5.12724 30.3297 5.16828 30.1647 5.0862L29.34 4.71686ZM33.4637 5.57866C33.505 5.70177 33.505 5.78385 33.4637 5.90696C33.4637 5.948 33.4225 6.07112 33.34 6.19423C33.2576 6.31734 33.1751 6.39942 33.0926 6.44046C33.0101 6.52254 32.8864 6.52253 32.7627 6.4815L32.639 6.44046H32.5978C32.8039 6.60461 32.8039 6.76876 32.6802 7.01499L32.3916 7.42537L32.0617 7.17914L32.3091 6.85084C32.3916 6.76876 32.4328 6.68669 32.3916 6.60461C32.3916 6.52253 32.3091 6.44046 32.2266 6.39942L31.773 6.07112L31.3606 6.64565L30.9895 6.44046L32.2679 4.63479L33.1338 5.25036C33.2988 5.37347 33.4225 5.49658 33.4637 5.57866ZM19.7317 3.36261L19.5255 1.55693L19.8966 1.5159L20.1853 3.69091L19.4842 3.77299L18.7007 2.62392C18.6183 2.45977 18.5358 2.33666 18.4121 2.1725L18.3296 2.00835L18.5358 3.85506L18.1646 3.8961L17.876 1.76212L18.577 1.68005L19.7317 3.36261ZM21.0925 1.8442V1.47486L22.7832 1.5159V1.88524L22.1234 1.8442V3.64987H21.6698L21.7111 1.8442H21.0925ZM25.2162 2.78807L25.1338 3.11638L24.1853 2.91119L24.0616 3.48572L25.1338 3.69091L25.0925 4.01922L23.608 3.77299L23.9791 1.63901L25.4224 1.88524L25.34 2.21354L24.2678 2.04939L24.1853 2.62392L25.2162 2.78807ZM18.9482 8.45132C20.3502 8.45132 21.5461 8.61547 22.4533 8.98482C23.3606 9.31312 24.1028 9.76454 24.6802 10.3391C25.2162 10.8726 25.5874 11.5292 25.8348 12.2268C26.1235 12.8834 26.2472 13.7042 26.2472 14.566C26.2472 15.674 26.041 16.7 25.6286 17.6438C25.3812 18.3004 25.0513 18.875 24.5977 19.4495H32.0617L31.1544 22.9377L10.2883 22.9788L14.2883 8.45132H18.9482ZM33.5875 8.36925L33.2576 8.12302L34.7009 6.4815L35.0308 6.76876L33.5875 8.36925ZM22.041 28.2727L21.3399 30.6119H29.175L28.3091 34.018H16.5151L18.8657 25.1538H29.9173L29.0513 28.2727H22.041ZM32.3503 36.2751L32.5153 36.152C32.639 36.0289 32.7627 35.9468 32.8452 35.9468C32.9689 35.9058 33.1338 35.9468 33.2576 36.0699C33.34 36.111 33.4225 36.2341 33.505 36.3161L33.7112 36.6034C33.7524 36.6855 33.7936 36.7676 33.7936 36.8086C33.7936 36.8907 33.7936 36.9317 33.7936 37.0138C33.7524 37.0959 33.7112 37.1369 33.6287 37.1779L33.4637 37.3421C33.34 37.4652 33.2576 37.5062 33.2576 37.5062C33.2163 37.5473 33.1751 37.5473 33.0926 37.5473C33.0101 37.5473 32.9277 37.5473 32.8452 37.5062C32.7627 37.4652 32.7215 37.3831 32.6802 37.3421L32.5565 37.1779C32.4328 37.0138 32.3503 36.8907 32.3091 36.8496C32.2679 36.7676 32.2266 36.6855 32.2266 36.6444C32.2266 36.5624 32.2266 36.5213 32.2679 36.4393C32.2679 36.4393 32.3091 36.3572 32.3503 36.2751ZM33.2988 35.5775L33.6287 35.2492L34.7009 35.7416H34.7421L34.6596 35.6185C34.5772 35.4543 34.4947 35.3723 34.4947 35.3312L34.206 34.6336L34.5359 34.3053L35.6081 35.3312L35.4019 35.5364L34.4947 34.6746L35.0308 35.8647L34.9071 36.0699L33.6699 35.5364L34.5772 36.3982L34.371 36.6034L33.2988 35.5775ZM8.30888 36.3982C8.4326 36.3161 8.55631 36.2341 8.68002 36.152L9.4223 35.7006L9.66972 35.9058L9.0924 37.0959L10.1646 36.3572L10.3708 36.5213L9.0924 37.3831L8.7625 37.0959L9.29858 36.0699V36.0289L8.30888 36.6855L7.97899 36.4393L8.68002 35.044L8.88621 35.2492L8.30888 36.3982ZM13.2986 38.286L13.5873 38.4501L13.3399 39.7223L14.1646 38.7374L14.412 38.8605L13.4636 40.0096L13.0512 39.8044L13.2986 38.6553L12.5151 39.5581L12.1027 39.353L12.4326 37.8756L12.7213 37.9987L12.4326 39.2298L13.2986 38.286ZM14.0409 40.2148L14.1646 39.9685L14.412 40.0506L14.2883 40.3379L14.0409 40.2148ZM14.7419 40.5431L15.1955 39.1067L15.8966 39.3119C15.9791 39.353 16.0615 39.394 16.144 39.435C16.2265 39.4761 16.2677 39.5171 16.2677 39.5581C16.309 39.6402 16.3502 39.7633 16.309 39.9275C16.309 39.9685 16.2677 40.0096 16.2677 40.0506L16.144 40.4199C16.1028 40.5431 16.0615 40.6251 16.0203 40.6662C15.9791 40.7072 15.8966 40.7482 15.8141 40.7893C15.7316 40.7893 15.6079 40.7893 15.4842 40.7482L14.7419 40.5431ZM16.8038 39.5581L17.0925 39.6402L16.7213 41.0765L16.4739 40.9945L16.8038 39.5581ZM12.1027 37.6704L12.3502 37.8345L11.1955 38.8605L10.8244 38.6143L11.1955 37.5062L10.2883 38.286L9.95838 38.0397L10.4945 36.6034L10.7419 36.7676L10.2883 37.9987L11.278 37.1369L11.5666 37.3421L11.1543 38.5732L12.1027 37.6704ZM32.1029 37.7114L32.3503 37.5473V37.5883C32.4328 37.7114 32.5153 37.7935 32.5153 37.8345C32.5153 37.9577 32.474 38.0397 32.3916 38.1218C32.3503 38.1629 32.2266 38.2449 32.1441 38.327C32.0204 38.4091 31.938 38.4501 31.8967 38.4912C31.8142 38.5322 31.773 38.5322 31.7318 38.5322C31.6493 38.5322 31.5668 38.4912 31.4843 38.4091C31.4019 38.327 31.3194 38.1628 31.1544 37.9987C31.072 37.8756 31.0307 37.7935 30.9895 37.6704C30.9483 37.5883 30.9895 37.4652 31.0307 37.4242C31.072 37.3421 31.1132 37.26 31.1957 37.219L31.4019 37.0548C31.5256 36.9728 31.6081 36.9317 31.6493 36.8907C31.773 36.8496 31.8967 36.8907 32.0204 37.0138L32.1441 37.1779L31.8967 37.3421H31.8555C31.8142 37.26 31.7318 37.219 31.6905 37.219C31.6493 37.219 31.5668 37.26 31.4843 37.3011C31.4019 37.3421 31.3606 37.3831 31.3194 37.4652C31.2369 37.5062 31.2369 37.5883 31.2782 37.6704L31.4431 37.9166C31.5668 38.0808 31.6493 38.2039 31.6905 38.2449C31.7318 38.286 31.773 38.286 31.8142 38.286C31.8555 38.286 31.938 38.2449 32.0617 38.1628C32.1854 38.0808 32.2679 37.9987 32.2679 37.9577C32.2679 37.9166 32.2679 37.8756 32.2266 37.7935L32.1029 37.7114ZM30.0823 38.286L30.1235 38.327L29.8761 38.4501C29.8348 38.368 29.7936 38.327 29.7524 38.327C29.7111 38.286 29.6699 38.286 29.6287 38.327C29.5874 38.327 29.5462 38.368 29.4637 38.368C29.4225 38.368 29.34 38.4091 29.2988 38.4501C29.2575 38.4501 29.2575 38.4912 29.2163 38.4912C29.2163 38.5322 29.2163 38.5732 29.2575 38.6553C29.2988 38.6963 29.2988 38.7374 29.34 38.7784C29.3812 38.8195 29.4225 38.8195 29.5049 38.7784L29.9586 38.6143C30.0823 38.5732 30.1647 38.6143 30.2472 38.6553C30.2885 38.6963 30.3297 38.7374 30.3709 38.8605C30.4122 38.9426 30.4534 38.9836 30.4534 39.0657C30.4534 39.1478 30.4534 39.1888 30.4534 39.2298C30.4534 39.3119 30.3709 39.353 30.2885 39.435L30.0823 39.5581C29.9173 39.6402 29.8348 39.6813 29.7524 39.6813C29.6699 39.6813 29.5874 39.6813 29.5049 39.5992C29.4637 39.5581 29.4225 39.4761 29.34 39.353L29.5874 39.2298L29.6699 39.353L29.7111 39.394C29.7524 39.394 29.7936 39.394 29.8348 39.394L30.1647 39.2298C30.206 39.1888 30.206 39.1888 30.206 39.1478C30.206 39.1067 30.206 39.0657 30.1647 38.9836C30.1235 38.9015 30.041 38.8605 29.9998 38.8605C29.9586 38.8605 29.8761 38.9015 29.7524 38.9836L29.5049 39.1067C29.3812 39.1478 29.2988 39.1478 29.2575 39.1067C29.2163 39.0657 29.1338 38.9836 29.0513 38.9015C28.9689 38.7374 28.9689 38.6143 29.0101 38.5322C29.0513 38.4501 29.0926 38.4091 29.175 38.368L29.4225 38.2449C29.5462 38.1629 29.6699 38.1218 29.7111 38.1218C29.8348 38.0808 29.9173 38.1218 29.9998 38.1628C29.9998 38.1628 30.041 38.2039 30.0823 38.286ZM31.072 38.6963L31.1957 38.9015L30.9895 39.0247L30.8245 38.7784L31.072 38.6963ZM28.3091 38.7374L28.5565 38.6143L29.1338 39.9685L28.6802 40.1737L27.9792 39.5581C27.9379 39.5581 27.8554 39.4761 27.7317 39.3119L27.6493 39.2298L28.1029 40.3789L27.8554 40.502L27.2781 39.1478L27.7317 38.9836L28.7627 39.8865L28.3091 38.7374ZM26.1235 39.4761L26.5358 39.353L27.4431 40.6251L27.1544 40.7072L26.9895 40.461L26.3709 40.6662L26.3297 40.9534L26.041 41.0355L26.1235 39.4761ZM21.7935 40.3789L21.8348 40.7482H22.5358V40.9534H21.8348L21.876 41.4049L22.6183 41.3638V41.61L21.5874 41.6511L21.5461 40.1737L22.5358 40.1327V40.3789H21.7935ZM23.6492 41.4869H23.3606L23.2368 40.2558L22.7832 40.2968L22.742 40.0506L23.8966 39.9275L23.9379 40.1737L23.4843 40.2558L23.6492 41.4869ZM24.9276 39.7633C25.0513 39.7223 25.175 39.7223 25.2575 39.7633C25.34 39.8044 25.4224 39.8454 25.4637 39.9275C25.4637 39.9685 25.5049 40.0506 25.5049 40.1327C25.5049 40.2148 25.5461 40.2968 25.5461 40.3379C25.5461 40.4199 25.5049 40.502 25.4224 40.5431L25.34 40.5841C25.5049 40.5431 25.5874 40.6251 25.6699 40.7893L25.7111 41.1176L25.3812 41.1997L25.34 40.9534C25.34 40.8714 25.2987 40.7893 25.2575 40.7482C25.2162 40.7482 25.175 40.7482 25.0925 40.7482L24.7214 40.8303L24.8451 41.2817L24.5564 41.3228L24.1853 39.9275L24.9276 39.7633ZM18.9894 39.9685L19.2781 40.0096L19.1131 41.4869L18.8244 41.4459L18.9894 39.9685ZM17.9997 41.3638L17.5461 41.2817L17.3399 39.7223L17.6286 39.7633L17.7935 41.0765L18.4121 39.8865L18.742 39.9275L17.9997 41.3638ZM20.8038 40.1327L21.0925 40.1737L21.01 41.6511H20.5152L19.9791 40.3789H19.9379L19.8966 41.6511L19.6492 41.569L19.7317 40.0916L20.1853 40.1327L20.7626 41.3638H20.8038V40.1327ZM36.2679 7.9999C36.3504 8.08198 36.4328 8.16406 36.5153 8.24613C36.639 8.41028 36.7627 8.5334 36.804 8.61547C36.8865 8.73859 36.8865 8.90274 36.804 9.02586C36.7627 9.10793 36.7215 9.14897 36.639 9.23104L36.5566 9.31312L36.3091 8.98482C36.3916 8.90274 36.4328 8.8617 36.4741 8.82066C36.4741 8.77963 36.4741 8.69755 36.4328 8.61547L36.1029 8.28717C36.0617 8.24613 36.0205 8.20509 35.9792 8.20509C35.8968 8.20509 35.8143 8.20509 35.7318 8.32821C35.6493 8.36925 35.6081 8.45132 35.6081 8.49236C35.6081 8.5334 35.6081 8.61547 35.6906 8.69755L35.8555 8.94378C35.9792 9.10793 36.0617 9.23104 36.1029 9.27208C36.1854 9.3952 36.2267 9.55935 36.1442 9.68246C36.1029 9.76454 36.0205 9.84661 35.8968 9.92869C35.8143 10.0108 35.7318 10.0928 35.6493 10.1339C35.5669 10.1749 35.5256 10.1749 35.4431 10.1749C35.3194 10.1749 35.1957 10.0928 35.072 10.0108C34.9895 9.92869 34.9071 9.84661 34.8246 9.7235C34.6596 9.51831 34.5359 9.3952 34.4947 9.27208C34.4122 9.14897 34.4122 9.02586 34.4947 8.8617C34.5359 8.77963 34.6184 8.69755 34.7833 8.57444L35.0308 8.8617C34.9895 8.90274 34.9483 8.94378 34.9071 9.02586C34.8658 9.02586 34.8658 9.06689 34.8658 9.10793C34.8658 9.19001 34.8658 9.23104 34.9071 9.31312L35.1132 9.51831C35.1957 9.60039 35.237 9.68246 35.2782 9.7235C35.3194 9.76454 35.3607 9.76454 35.4019 9.76454C35.4431 9.76454 35.5256 9.7235 35.6493 9.64143C35.7318 9.55935 35.773 9.47727 35.773 9.3952C35.7318 9.35416 35.6493 9.23104 35.5256 9.02586L35.3194 8.73859C35.237 8.61547 35.1957 8.49236 35.1957 8.36925C35.237 8.28717 35.3194 8.16406 35.4431 8.04094C35.6081 7.87679 35.773 7.79471 35.938 7.83575C36.0617 7.83575 36.1854 7.91783 36.2679 7.9999ZM37.7937 10.4211L37.2988 10.7495L37.8761 11.5702L37.5875 11.7344L37.0514 10.8726L36.5566 11.2419L37.1339 12.1037L36.8865 12.3089L36.0205 11.0778L37.8349 9.88765L38.6597 11.1188L38.371 11.2829L37.7937 10.4211ZM37.505 13.3759C37.4638 13.2528 37.505 13.1297 37.6287 13.0065C37.67 12.9655 37.7937 12.8834 37.9586 12.7603L38.1236 13.1297L37.9586 13.2117C37.9586 13.2117 37.9174 13.2528 37.9174 13.2938C37.8762 13.3348 37.8762 13.4169 37.9174 13.499L38.0411 13.7452C38.0823 13.8683 38.1236 13.9094 38.1648 13.9504C38.2061 13.9915 38.2473 14.0325 38.2885 14.0325C38.3298 14.0325 38.4122 14.0325 38.536 13.9504C38.6597 13.8683 38.7009 13.8273 38.7009 13.7452C38.7009 13.7042 38.6597 13.54 38.5772 13.3348C38.4947 13.1297 38.4535 13.0065 38.4535 13.0065C38.4122 12.8424 38.4122 12.7193 38.4947 12.5962C38.5359 12.5141 38.6597 12.432 38.8246 12.3499C39.072 12.2268 39.237 12.2268 39.3607 12.3089C39.4844 12.3499 39.5669 12.473 39.6081 12.5551C39.6494 12.6372 39.7318 12.7603 39.7731 12.8834C39.8556 13.0886 39.938 13.2528 39.938 13.3348C39.9793 13.499 39.938 13.6221 39.8143 13.7042C39.7731 13.7452 39.6906 13.8273 39.5669 13.8683L39.4432 13.9504L39.237 13.5811C39.3195 13.54 39.4019 13.499 39.4432 13.4169C39.4432 13.3759 39.4432 13.3348 39.4432 13.2528C39.4432 13.2117 39.4019 13.1297 39.3607 13.0476L39.237 12.8834C39.237 12.8424 39.1958 12.8014 39.1545 12.7603C39.072 12.7193 38.9896 12.7193 38.9071 12.7603C38.8246 12.8014 38.7834 12.8424 38.7421 12.8834C38.7009 12.9245 38.7009 13.0065 38.7421 13.0886L38.8658 13.3759C38.9483 13.54 38.9896 13.6632 38.9896 13.7452C39.0308 13.9094 39.0308 14.0325 38.9483 14.1556C38.9071 14.1966 38.7834 14.2787 38.6184 14.3198C38.4947 14.4018 38.371 14.4429 38.3298 14.4429C38.2473 14.4429 38.1648 14.4429 38.0823 14.4429C37.9586 14.4018 37.8762 14.3198 37.7937 14.1556L37.6287 13.8273C37.5462 13.6632 37.505 13.458 37.505 13.3759ZM25.2162 40.2148C25.2162 40.1327 25.175 40.0916 25.175 40.0506C25.1338 40.0096 25.0925 39.9685 25.0513 40.0096C25.0101 40.0096 25.0101 40.0096 24.9688 40.0096L24.5564 40.0916L24.6802 40.5841L25.0925 40.502C25.175 40.502 25.2162 40.461 25.2575 40.4199C25.2575 40.3789 25.2987 40.3379 25.2987 40.2968L25.2162 40.2148ZM26.3709 40.4199L26.8657 40.2558L26.3709 39.5992V40.4199ZM15.8141 39.5581L15.4017 39.394L15.1131 40.3789L15.4842 40.502C15.6079 40.5431 15.6904 40.5431 15.7729 40.502C15.8141 40.461 15.8553 40.4199 15.8966 40.3379C15.9378 40.2968 15.9378 40.2148 15.9791 40.1327L16.0615 39.8865C16.0615 39.7633 16.0615 39.6813 15.9791 39.6402C15.8966 39.5992 15.8553 39.5581 15.8141 39.5581ZM32.9689 36.2341C32.9277 36.2341 32.8864 36.2341 32.8452 36.2341C32.8039 36.2341 32.8039 36.2751 32.7215 36.2751L32.5978 36.3572C32.5153 36.4393 32.4328 36.5213 32.4328 36.5213C32.3916 36.5624 32.3916 36.6444 32.474 36.7676L32.8039 37.1779C32.8452 37.219 32.8864 37.26 32.9277 37.26C32.9689 37.3011 33.0101 37.3011 33.0514 37.26C33.0926 37.26 33.1751 37.1779 33.2988 37.0959C33.3813 37.0138 33.4637 36.9727 33.4637 36.9317C33.505 36.8496 33.4637 36.7676 33.4225 36.6855C33.3813 36.6444 33.34 36.5624 33.2576 36.4393L33.0926 36.2751C33.0926 36.2751 33.0514 36.2341 32.9689 36.2341ZM22.1234 14.8943C22.1234 14.4429 22.0822 14.0735 21.9585 13.7452C21.7935 13.4169 21.6286 13.1707 21.3812 12.9245C21.1337 12.6372 20.7626 12.432 20.309 12.2679C19.8554 12.1037 19.2781 12.0627 18.577 12.0627H17.3811L15.443 19.4495H16.7213C17.5873 19.4495 18.3708 19.3264 19.0719 19.0802C19.8141 18.7929 20.4327 18.4236 20.9275 17.9721C21.2987 17.6028 21.5873 17.1514 21.7523 16.5769C21.9997 16.0023 22.1234 15.4688 22.1234 14.8943ZM32.9689 5.6197L32.3916 5.20932L31.9792 5.82489L32.4328 6.15319C32.5565 6.23527 32.639 6.27631 32.7215 6.27631C32.7627 6.27631 32.8039 6.23527 32.8452 6.19423L32.9689 6.07112C33.0514 5.98904 33.0926 5.90696 33.0926 5.86593C33.0926 5.74281 33.0926 5.66074 32.9689 5.6197ZM29.5049 4.4296L29.9173 4.63479C30.041 4.71686 30.1647 4.7579 30.206 4.7579C30.2472 4.7579 30.3297 4.67582 30.3709 4.63479L30.4946 4.47063C30.5359 4.34752 30.5771 4.26544 30.5771 4.22441C30.5771 4.14233 30.5359 4.06025 30.4534 4.01922L29.8761 3.73195L29.5049 4.4296ZM27.6905 2.87015C27.6905 2.87015 27.6493 2.82911 27.5668 2.82911L26.9895 2.62392L26.7833 3.36261L27.3194 3.52676C27.4431 3.5678 27.5255 3.5678 27.608 3.52676C27.6493 3.52676 27.6905 3.48572 27.7317 3.40365L27.773 3.23949C27.8142 3.15742 27.8142 3.07534 27.8142 2.99326C27.8142 2.99326 27.773 2.91119 27.6905 2.87015ZM3.52534 12.7603C3.4841 12.8014 3.40163 12.8834 3.40163 12.9655L3.11296 13.499L4.43256 14.1146L4.67999 13.5811C4.76246 13.4169 4.76246 13.2528 4.72122 13.1707C4.67999 13.1297 4.63875 13.0476 4.51504 13.0065C4.4738 12.9655 4.35009 12.9245 4.22638 12.8424C4.06143 12.7603 3.93771 12.7193 3.85524 12.6782C3.73153 12.6782 3.60781 12.6782 3.52534 12.7603Z" fill="#164CFF"/>
<path d="M33.5263 9.52182C30.2005 6.10932 26.1311 4.40308 21.2973 4.40308C16.5048 4.40308 12.4354 6.10932 9.08894 9.52182C5.65986 12.9138 3.94531 16.9841 3.94531 21.7328C3.94531 26.5226 5.65986 30.593 9.08894 33.9438C12.4354 37.2946 16.5048 38.9803 21.2973 38.9803C26.1311 38.9803 30.2005 37.2946 33.5263 33.9438C36.9347 30.593 38.6493 26.5226 38.6493 21.7328C38.6493 16.9635 36.9347 12.8932 33.5263 9.52182ZM21.2973 4.99923C25.9451 4.99923 29.8907 6.62325 33.1132 9.89185C36.3976 13.1604 38.0502 17.1074 38.0502 21.6917C38.0502 26.3171 36.3976 30.2229 33.1132 33.4504C29.8907 36.719 25.9451 38.343 21.2973 38.343C16.7114 38.343 12.7866 36.719 9.54339 33.4504C6.19694 30.2229 4.52371 26.3171 4.52371 21.6917C4.52371 17.1074 6.19694 13.1604 9.54339 9.89185C12.7866 6.62325 16.7114 4.99923 21.2973 4.99923Z" fill="white"/>
</svg>
